<svg width="21" height="21" viewBox="0 0 21 21" fill="none" xmlns="http://www.w3.org/2000/svg">
<path opacity="0.4" fill-rule="evenodd" clip-rule="evenodd" d="M3.91064 18.5885C3.91064 17.7485 4.59064 17.0685 5.43064 17.0685C6.26064 17.0685 6.94064 17.7485 6.94064 18.5885C6.94064 19.4185 6.26064 20.0985 5.43064 20.0985C4.59064 20.0985 3.91064 19.4185 3.91064 18.5885ZM15.1606 18.5885C15.1606 17.7485 15.8406 17.0685 16.6806 17.0685C17.5106 17.0685 18.1906 17.7485 18.1906 18.5885C18.1906 19.4185 17.5106 20.0985 16.6806 20.0985C15.8406 20.0985 15.1606 19.4185 15.1606 18.5885Z" fill="url(#paint0_linear_604_189)"/>
<path fill-rule="evenodd" clip-rule="evenodd" d="M18.1907 4.34896C18.8007 4.34896 19.2007 4.55896 19.6007 5.01896C20.0007 5.47896 20.0707 6.13896 19.9807 6.73796L19.0307 13.298C18.8507 14.559 17.7707 15.488 16.5007 15.488H5.59074C4.26074 15.488 3.16074 14.468 3.05074 13.149L2.13074 2.24796L0.620742 1.98796C0.220742 1.91796 -0.0592579 1.52796 0.0107421 1.12796C0.0807421 0.717964 0.470742 0.447964 0.880742 0.507964L3.26574 0.867964C3.60574 0.928964 3.85574 1.20796 3.88574 1.54796L4.07574 3.78796C4.10574 4.10896 4.36574 4.34896 4.68574 4.34896H18.1907ZM12.1307 9.54796H14.9007C15.3207 9.54796 15.6507 9.20796 15.6507 8.79796C15.6507 8.37796 15.3207 8.04796 14.9007 8.04796H12.1307C11.7107 8.04796 11.3807 8.37796 11.3807 8.79796C11.3807 9.20796 11.7107 9.54796 12.1307 9.54796Z" fill="url(#paint1_linear_604_189)"/>
<defs>
<linearGradient id="paint0_linear_604_189" x1="3.91064" y1="16.8824" x2="14.9209" y2="24.922" gradientUnits="userSpaceOnUse">
<stop stop-color="#53E88B"/>
<stop offset="1" stop-color="#15BE77"/>
</linearGradient>
<linearGradient id="paint1_linear_604_189" x1="-2.83832e-08" y1="-0.420702" x2="22.6895" y2="4.2738" gradientUnits="userSpaceOnUse">
<stop stop-color="#53E88B"/>
<stop offset="1" stop-color="#15BE77"/>
</linearGradient>
</defs>
</svg>
